# xmcd
#
# Track frame offsets: 
#        150
#        16925
#        37189
#        62474
#        88468
#        128171
#        164474
#        206991
#        245194
#
# Disc length: 3719 seconds
#
# Revision: 0
# Processed by: cddbd v1.5.2PL0 Copyright (c) Steve Scherf et al.
# Submitted via: ExactAudioCopy v1.2
#
DISCID=850e8509
DTITLE=Eddie Bo and Chris Barber - The 1991 Sea-Saint Sessions
DYEAR=2017
DGENRE=Blues
TTITLE0=Wake Up (Radio Edit)
TTITLE1=I've Got A Story
TTITLE2=Tell It Like It Is
TTITLE3=She Gay San
TTITLE4=Careless Love
TTITLE5=Every Dog Has Its Day
TTITLE6=You Are So Beautiful
TTITLE7=Check Your Bucket
TTITLE8=Wake Up (Full Length Version)
EXTD=
EXTT0=
EXTT1=
EXTT2=
EXTT3=
EXTT4=
EXTT5=
EXTT6=
EXTT7=
EXTT8=
PLAYORDER=
